<svg width="1912" height="1644" viewBox="0 0 1912 1644" fill="none" xmlns="http://www.w3.org/2000/svg">
<path d="M979.85 397.19C978.697 396.943 978.12 397.4 978.12 398.56C978.147 422.287 978.16 450.91 978.16 484.43C978.16 484.79 978.251 485.15 978.425 485.48C978.598 485.81 978.85 486.101 979.16 486.33C979.64 486.683 980.32 486.563 981.2 485.97C995.38 476.43 1010.92 471.21 1027.83 471.98C1042.96 472.68 1056.51 477.1 1068.47 485.24C1090.24 500.06 1100.23 521.067 1098.44 548.26C1098.31 550.227 1098.89 553.95 1100.2 559.43C1100.97 562.66 1101.51 567.29 1100.83 571.29C1100.4 573.86 1098.35 576.32 1096.04 577.87C1087.52 583.597 1078.93 583.77 1070.27 578.39C1066.42 575.997 1064.31 572.467 1063.94 567.8C1063.56 562.967 1064.24 559.29 1065.99 556.77C1068.59 553.02 1073.35 549.77 1074.11 545.18C1074.48 542.94 1074.3 539.89 1073.58 536.03C1071.34 524.03 1065.44 514.437 1055.88 507.25C1050.53 503.23 1044.51 500.553 1037.84 499.22C1023.35 496.33 1006.48 498.05 994.52 507.16C987.14 512.78 982.27 520.65 979.91 530.77C979.223 533.697 978.847 540.217 978.78 550.33C978.18 633.177 977.957 709.97 978.11 780.71C978.111 780.892 978.077 781.073 978.008 781.241C977.939 781.41 977.838 781.563 977.709 781.692C977.581 781.821 977.428 781.924 977.26 781.994C977.092 782.064 976.912 782.1 976.73 782.1H956.24C955.747 782.1 955.274 781.903 954.925 781.552C954.576 781.202 954.38 780.726 954.38 780.23C954.127 572.85 954.037 354.093 954.11 123.96C954.11 118.14 954.167 112.42 954.28 106.8C954.453 97.7067 954.673 92 954.94 89.68C956.54 75.4667 962.373 62.8767 972.44 51.91C986.93 36.14 1005.26 26.19 1026.21 22.89C1053.42 18.61 1078.69 23.79 1102.02 38.43C1118.61 48.8433 1132.09 62.2 1142.46 78.5C1144.86 82.28 1147.44 87.64 1149.58 91.35C1149.82 91.7602 1150.14 92.1107 1150.54 92.3743C1150.94 92.6379 1151.39 92.8075 1151.86 92.87C1169.07 95.12 1186.7 98.62 1201.52 107.77C1212.7 114.663 1222.04 123.41 1229.54 134.01C1235.54 142.49 1239.22 151.2 1240.83 161.23C1241.9 167.917 1242.86 175.17 1243.7 182.99C1243.74 183.363 1244 184.043 1244.48 185.03C1244.78 185.637 1245.18 186.24 1245.69 186.84C1248.24 189.827 1250.88 193.16 1253.63 196.84C1265.16 212.293 1271.14 229.13 1271.58 247.35C1271.88 259.71 1270.11 271.737 1266.28 283.43C1266.14 283.867 1266.12 284.336 1266.24 284.78C1266.36 285.223 1266.61 285.623 1266.95 285.93C1286.97 303.76 1300.21 328.92 1300.93 356.02C1301.6 381.28 1293.39 403.047 1276.3 421.32C1275.99 421.647 1275.79 422.057 1275.71 422.499C1275.64 422.942 1275.69 423.397 1275.87 423.81C1277.54 427.603 1279 431.413 1280.26 435.24C1288.27 459.54 1285.72 483.89 1272.82 505.56C1264.16 520.087 1252.9 531.99 1239.04 541.27C1223.97 551.36 1204.48 554.81 1185.96 553.09C1185.77 553.072 1185.58 553.094 1185.39 553.155C1185.21 553.216 1185.05 553.315 1184.9 553.445C1184.76 553.575 1184.65 553.733 1184.57 553.909C1184.49 554.086 1184.45 554.277 1184.45 554.47V574C1184.45 574.29 1184.53 574.575 1184.67 574.827C1184.81 575.08 1185.02 575.291 1185.27 575.44C1186.73 576.31 1188.25 575.68 1189.81 575.1C1208.31 568.307 1220.3 563.917 1225.79 561.93C1225.95 561.872 1226.11 561.861 1226.27 561.896C1226.44 561.932 1226.58 562.013 1226.7 562.13C1226.82 562.248 1226.9 562.397 1226.94 562.56C1226.97 562.722 1226.97 562.892 1226.91 563.05C1225.46 567.05 1223.71 570.78 1221.67 574.24C1197.82 614.687 1163.14 642.72 1117.62 658.34C1116.53 658.713 1115.74 659.44 1115.25 660.52C1115.12 660.827 1115.09 661.147 1115.16 661.48C1115.43 662.647 1115.91 664.443 1116.62 666.87C1118.06 671.877 1119.06 677.057 1119.61 682.41C1120.06 686.697 1119.69 690.43 1118.51 693.61C1117.76 695.643 1116.07 698.303 1113.44 701.59C1102.57 715.21 1093.29 729.84 1085.79 745.81C1085 747.483 1083.72 752.2 1081.93 759.96C1080.2 767.46 1078.87 773.993 1077.92 779.56C1077.82 780.181 1077.5 780.747 1077.02 781.159C1076.55 781.572 1075.94 781.805 1075.31 781.82C1068.6 781.993 1062.27 781.993 1056.3 781.82C1053.18 781.73 1053.01 779.56 1053.44 777.01C1058.68 745.57 1070.84 717.03 1089.91 691.39C1091.33 689.48 1092.24 687 1092.21 684.42C1091.95 666.95 1084.47 651.97 1069.38 642.98C1058.52 636.51 1046.6 635.53 1035.15 641.37C1023.6 647.27 1018.78 657.88 1018.79 670.76C1018.85 716.727 1018.8 752.957 1018.64 779.45C1018.63 781.183 1017.75 782.05 1016.02 782.05H997.53C995.497 782.05 994.473 781.033 994.46 779C994.167 739.94 994.087 705.2 994.22 674.78C994.26 666.48 994.36 657.86 996.75 650.29C998.583 644.463 1000.53 639.64 1002.58 635.82C1010.14 621.74 1024.92 613.54 1040.52 611.51C1056.64 609.42 1071.55 611.96 1084.36 621.4C1087.8 623.933 1091.31 626.823 1094.88 630.07C1097.11 632.097 1098.98 633.27 1100.49 633.59C1101.94 633.897 1104.12 633.707 1107.05 633.02C1125.3 628.76 1139.22 619.71 1148.83 605.87C1153.06 599.77 1156.21 593.907 1158.26 588.28C1161.07 580.593 1161.66 571.833 1160.05 562C1158.38 551.813 1153.23 543.853 1144.59 538.12C1142.35 536.633 1139.01 534.737 1134.58 532.43C1129.4 529.737 1126.23 527.79 1125.08 526.59C1118.57 519.82 1119.59 507.72 1128.3 502.79C1135.62 498.65 1141.89 501.35 1147.7 506.59C1151.68 510.177 1155.1 513.167 1157.95 515.56C1165.8 522.13 1173.23 525.76 1182.97 526.59C1188.87 527.097 1194.22 527.167 1199.02 526.8C1214.57 525.62 1227.74 519.45 1238.53 508.29C1244.39 502.23 1249.01 495.513 1252.38 488.14C1259.57 472.467 1260.22 456.41 1254.35 439.97C1254.28 439.781 1254.18 439.609 1254.03 439.467C1253.89 439.324 1253.72 439.215 1253.53 439.146C1253.35 439.077 1253.15 439.051 1252.95 439.069C1252.75 439.087 1252.55 439.149 1252.38 439.25C1239.43 446.763 1225.56 450.427 1210.75 450.24C1202.95 450.14 1162.29 449.83 1088.76 449.31C1072.27 449.197 1055.64 446.05 1038.87 439.87C1015.7 431.33 996.293 417.273 980.66 397.7C980.453 397.441 980.167 397.261 979.85 397.19ZM1035.29 111.52C1042.56 109.95 1050.5 112.1 1056.6 116.3C1068.52 124.52 1076.52 135.75 1080.6 149.99C1084.61 163.97 1084.64 178.05 1080.67 192.23C1079.09 197.91 1078.02 201.697 1077.45 203.59C1077.26 204.23 1077.31 204.637 1077.62 204.81C1077.83 204.924 1078.06 204.985 1078.3 204.986C1078.53 204.988 1078.77 204.931 1078.98 204.82C1084.63 201.873 1090.55 199.747 1096.72 198.44C1102.25 197.267 1106.61 196.277 1109.8 195.47C1112.1 194.89 1113.72 194.043 1114.66 192.93C1128.62 176.343 1135.17 157.23 1134.32 135.59C1133.57 116.49 1125.89 99.71 1114.05 84.71C1106.42 75.05 1097.57 66.8167 1087.5 60.01C1069.71 47.99 1047.18 44.51 1026 49.09C1002.96 54.08 983.38 72.45 979.85 96.29C978.897 102.697 978.403 108.263 978.37 112.99C978.317 121.037 978.233 138.583 978.12 165.63C978.107 168.13 978.217 171.07 978.45 174.45C978.75 178.79 979.087 181.687 979.46 183.14C982.633 195.467 989.733 203.573 1000.76 207.46C1012.73 211.667 1024.49 210.767 1036.04 204.76C1040.99 202.187 1045.33 198.547 1049.07 193.84C1056.66 184.28 1059.03 173.873 1056.18 162.62C1054.89 157.5 1053 151.29 1049.59 147.66C1047.98 145.94 1046.56 145.09 1045.31 145.11C1036.84 145.24 1030.8 145.33 1025.03 139.01C1022.29 135.997 1021.1 132.403 1021.47 128.23C1022.29 118.897 1026.9 113.327 1035.29 111.52ZM1202.37 184.87C1201.1 178.39 1202.98 173.23 1207.99 169.39C1209.9 167.92 1212.59 166.91 1214.83 165.77C1215.72 165.323 1215.96 164.643 1215.57 163.73C1208.14 146.417 1195.68 133.863 1178.19 126.07C1170.98 122.857 1165.31 120.803 1161.16 119.91C1160.83 119.845 1160.5 119.872 1160.19 119.99C1159 120.443 1158.56 121.777 1158.88 123.99C1159.95 131.51 1160.46 137.963 1160.4 143.35C1160.23 158.83 1156.29 173.263 1148.6 186.65C1147.07 189.317 1145.25 192.303 1143.12 195.61C1142.99 195.809 1142.91 196.035 1142.88 196.27C1142.86 196.505 1142.88 196.743 1142.96 196.966C1143.04 197.189 1143.17 197.391 1143.34 197.556C1143.51 197.722 1143.72 197.846 1143.94 197.92C1149.61 199.773 1154.24 201.443 1157.84 202.93C1176.55 210.65 1191.96 222.567 1204.07 238.68C1207.52 243.273 1211.11 249.017 1214.84 255.91C1215.83 257.73 1217.56 260.18 1219.52 260.54C1226.28 261.76 1232.5 262.99 1238.76 266.35C1243.48 268.88 1244.51 264.96 1244.79 260.87C1245.34 252.96 1245.42 244.91 1243.89 237.49C1240.17 219.37 1230.62 205.22 1215.24 195.04C1209.86 191.48 1206.52 189.22 1205.21 188.26C1203.52 187.02 1202.57 185.89 1202.37 184.87ZM1195.11 348.43C1189.29 345.74 1187.62 341.29 1189.3 335.55C1191.13 329.27 1195.02 322.65 1196.78 316.81C1200.95 302.95 1199.72 287.78 1194.46 274.46C1189.43 261.73 1178.88 249.07 1168.36 239.95C1155.51 228.803 1140.5 222.897 1123.33 222.23C1114.38 221.883 1106.51 222.957 1099.74 225.45C1083.61 231.377 1070.72 242.02 1061.09 257.38C1056.84 264.153 1054.2 271.12 1053.17 278.28C1049.56 303.127 1057.05 323.823 1075.63 340.37C1089.15 352.41 1105.72 358.44 1123.43 353.92C1127.4 352.907 1130.31 351.887 1132.17 350.86C1137.01 348.2 1139.39 344.08 1142.67 339.44C1144.2 337.293 1145.52 335.77 1146.65 334.87C1151.1 331.323 1155.58 330.7 1160.09 333C1167.41 336.74 1170.34 344.57 1167.46 352.43C1165.37 358.15 1162.13 362.66 1157.75 365.96C1136.02 382.353 1112.36 386.01 1086.79 376.93C1069.43 370.76 1054.67 358.01 1043.45 343.49C1027.09 322.34 1022.39 295.12 1028.57 269.27C1031.1 258.677 1035.52 249.187 1041.82 240.8C1045.64 235.727 1048.1 232.48 1049.21 231.06C1049.35 230.878 1049.44 230.66 1049.47 230.43C1049.49 230.2 1049.46 229.967 1049.36 229.758C1049.26 229.548 1049.1 229.37 1048.91 229.243C1048.72 229.117 1048.49 229.046 1048.26 229.04C1047.36 229.02 1046.28 229.277 1045.03 229.81C1023.79 238.82 1002.41 237.51 981.48 228.19C980.27 227.65 978.78 227.6 978.25 229.06C978.191 229.212 978.16 229.371 978.16 229.53C978.187 259.637 978.33 286.68 978.59 310.66C978.63 314.66 978.767 318.91 979 323.41C979.32 329.51 979.7 333.757 980.14 336.15C985.34 364.31 1002.72 390.1 1025.92 406.25C1033.21 411.33 1040.66 414.843 1048.27 416.79C1059.47 419.663 1070.98 421.747 1082.79 423.04C1087.69 423.58 1094.34 423.863 1102.75 423.89C1153.38 424.07 1186.41 424.16 1201.86 424.16C1210.25 424.153 1216.32 423.847 1220.08 423.24C1226.63 422.18 1232.51 420.43 1237.72 417.99C1252.8 410.92 1263.41 398.02 1269.91 382.71C1275.86 368.697 1276.65 354.623 1272.28 340.49C1266.25 320.95 1251.99 305.06 1235.04 293.18C1232.11 291.127 1230.49 290.02 1230.18 289.86C1228.81 289.153 1227.71 288.88 1226.88 289.04C1225.21 289.367 1224.45 290.39 1224.61 292.11C1225.82 304.837 1224.6 317.197 1220.95 329.19C1218.67 336.69 1216.52 341.94 1210.05 346.74C1205.61 350.04 1199.94 350.66 1195.11 348.43Z" fill="white"/>
<path d="M1114.99 312.907C1124.5 316.425 1134.95 311.886 1138.32 302.77C1141.69 293.653 1136.72 283.411 1127.21 279.893C1117.7 276.375 1107.25 280.914 1103.88 290.03C1100.51 299.147 1105.48 309.389 1114.99 312.907Z" fill="white"/>
<path d="M1058.33 801.515L846.727 801.145C838.47 801.131 831.765 807.813 831.751 816.069L831.75 816.489C831.735 824.746 838.417 831.451 846.674 831.465L1058.27 831.835C1066.53 831.849 1073.24 825.167 1073.25 816.911L1073.25 816.491C1073.26 808.234 1066.58 801.529 1058.33 801.515Z" fill="white"/>
<path d="M1058.15 848.96H846.69C838.489 848.96 831.84 855.609 831.84 863.81V864.23C831.84 872.431 838.489 879.08 846.69 879.08H1058.15C1066.35 879.08 1073 872.431 1073 864.23V863.81C1073 855.609 1066.35 848.96 1058.15 848.96Z" fill="white"/>
<path d="M1058.7 896.505L846.205 896.135C838.396 896.121 832.054 902.441 832.041 910.25L832.04 910.63C832.026 918.439 838.346 924.781 846.155 924.795L1058.65 925.165C1066.46 925.179 1072.81 918.859 1072.82 911.05L1072.82 910.67C1072.83 902.861 1066.51 896.519 1058.7 896.505Z" fill="white"/>
<path d="M1057.45 942.123L847.507 941.757C839.129 941.742 832.325 948.522 832.311 956.9L832.31 957.32C832.295 965.698 839.075 972.502 847.453 972.517L1057.39 972.883C1065.77 972.898 1072.57 966.118 1072.59 957.74L1072.59 957.32C1072.6 948.942 1065.82 942.138 1057.45 942.123Z" fill="white"/>
<path d="M1003.77 987.51C1004.01 987.511 1004.26 987.561 1004.48 987.655C1004.71 987.75 1004.91 987.888 1005.08 988.062C1005.25 988.236 1005.39 988.441 1005.48 988.667C1005.57 988.894 1005.62 989.136 1005.62 989.38L1005.59 998.19C1005.56 1005.52 1004.15 1012.77 1001.44 1019.53C998.729 1026.3 994.766 1032.43 989.78 1037.6C984.793 1042.76 978.88 1046.85 972.379 1049.64C965.878 1052.42 958.916 1053.84 951.89 1053.81H950.97C936.781 1053.76 923.195 1047.83 913.199 1037.33C903.203 1026.83 897.617 1012.61 897.67 997.81L897.7 989C897.701 988.756 897.751 988.514 897.845 988.289C897.94 988.064 898.078 987.859 898.252 987.688C898.425 987.516 898.631 987.38 898.857 987.288C899.084 987.195 899.326 987.149 899.57 987.15L1003.77 987.51Z" fill="white"/>
<path d="M1638.45 1179.13C1639.14 1179.09 1639.48 1178.73 1639.48 1178.04V1132.72C1639.48 1132.35 1639.67 1132.17 1640.04 1132.17H1678.9C1679.03 1132.17 1679.15 1132.22 1679.25 1132.31C1679.34 1132.4 1679.39 1132.52 1679.39 1132.65C1679.42 1216 1679.41 1260.78 1679.36 1266.99C1679.27 1279.2 1676.96 1294.06 1670.1 1303.8C1664.59 1311.61 1656.8 1316.93 1646.73 1319.75C1636.29 1322.67 1625.22 1324.1 1613.51 1324.05C1589.77 1323.94 1567.19 1324.25 1548.01 1323.88C1537.84 1323.68 1527.83 1321.89 1518 1318.51C1505.08 1314.08 1496.61 1305.4 1492.6 1292.48C1490.13 1284.53 1488.84 1276.29 1488.73 1267.78C1488.52 1252.13 1488.57 1239.96 1488.89 1231.25C1489.02 1227.6 1489.65 1223.04 1490.78 1217.57C1493.48 1204.43 1500.42 1193.03 1512.58 1187.1C1519.41 1183.76 1527.12 1181.61 1535.69 1180.65C1543.28 1179.8 1550.21 1179.36 1556.5 1179.34C1577.71 1179.27 1602.04 1179.25 1629.5 1179.3C1633.32 1179.31 1636.3 1179.25 1638.45 1179.13ZM1543.17 1288.41C1549.26 1289.87 1556.47 1290.25 1562.52 1290.3C1574.24 1290.4 1590.32 1290.39 1610.75 1290.27C1615.03 1290.24 1619.31 1289.84 1623.59 1289.06C1631.06 1287.7 1635.79 1283.58 1637.78 1276.69C1638.86 1272.95 1639.41 1268.9 1639.44 1264.55C1639.53 1248.19 1639.56 1231.41 1639.53 1214.2C1639.53 1214.12 1639.51 1214.04 1639.48 1213.97C1639.45 1213.89 1639.41 1213.83 1639.35 1213.77C1639.3 1213.72 1639.23 1213.67 1639.16 1213.64C1639.09 1213.61 1639.01 1213.6 1638.93 1213.6C1618.84 1213.65 1593.22 1213.66 1562.07 1213.61C1552.83 1213.59 1537.18 1213.67 1532.19 1222.77C1529.83 1227.09 1528.77 1233.29 1528.7 1238C1528.54 1249.74 1528.57 1259.07 1528.78 1266C1529.1 1276.22 1531.96 1285.72 1543.17 1288.41Z" fill="white"/>
<path d="M127.67 1142.32V1175.51C127.67 1175.72 127.585 1175.93 127.433 1176.08C127.281 1176.23 127.075 1176.32 126.86 1176.32C120.833 1176.31 102.82 1176.31 72.82 1176.34C69.32 1176.34 65.9933 1177.16 62.84 1178.79C58.07 1181.27 57.32 1186.11 56.75 1191.54C56.1033 1197.65 56.4367 1203.15 57.75 1208.05C58.25 1209.92 59.68 1211.59 62.04 1213.06C65.2333 1215.05 69.08 1215.99 73.58 1215.86C73.8333 1215.85 102 1215.78 158.08 1215.63C166.24 1215.61 173.97 1216.22 181.27 1217.47C188.89 1218.78 195.453 1221.32 200.96 1225.1C209.38 1230.89 213.57 1241.2 214.85 1251.5C215.117 1253.65 215.307 1258.32 215.42 1265.52C215.53 1272.22 215.5 1280.58 215.09 1285.82C214.603 1291.88 213.1 1297.55 210.58 1302.83C201.55 1321.79 178.44 1324.03 159.88 1324.06C113.433 1324.13 66.7433 1324.14 19.81 1324.08C19.2367 1324.08 18.95 1323.79 18.95 1323.22V1290.59C18.95 1289.87 19.31 1289.51 20.03 1289.51C35.13 1289.5 81.8767 1289.48 160.27 1289.43C169.45 1289.43 177.86 1286.55 178.09 1275.66C178.243 1268.44 178.167 1263.48 177.86 1260.77C177.113 1254.24 173.423 1250.33 166.79 1249.02C163.53 1248.38 160.27 1248.07 157.01 1248.08C153.943 1248.09 125.94 1248.14 73 1248.23C61.7133 1248.24 52.3567 1247.22 44.93 1245.16C26.76 1240.1 20.41 1226.31 19.5 1208.75C19.14 1201.73 19.14 1194.07 19.5 1185.76C19.7 1181.15 20.4033 1176.39 21.61 1171.46C24.7233 1158.73 32.1233 1150.17 43.81 1145.76C50.1233 1143.38 57.1133 1142.12 64.78 1141.99C79.9533 1141.74 100.777 1141.71 127.25 1141.9C127.361 1141.9 127.468 1141.94 127.547 1142.02C127.626 1142.1 127.67 1142.21 127.67 1142.32Z" fill="white"/>
<path d="M275 1266.17C274.834 1266.17 274.674 1266.23 274.554 1266.35C274.435 1266.46 274.365 1266.62 274.36 1266.78C274.16 1271.74 274.397 1276.55 275.07 1281.22C276.51 1291.16 284.81 1293.65 293.53 1293.68C310.67 1293.75 327.86 1293.81 345.1 1293.87C345.222 1293.87 345.339 1293.92 345.425 1294C345.512 1294.09 345.56 1294.21 345.56 1294.33V1323.44C345.56 1323.62 345.489 1323.79 345.361 1323.92C345.234 1324.04 345.061 1324.12 344.88 1324.12C321.06 1324.13 304.517 1324.1 295.25 1324.04C274.11 1323.91 249.78 1319.49 239.91 1298.33C236.437 1290.88 234.637 1282.44 234.51 1272.99C234.43 1266.5 234.4 1253.92 234.42 1235.25C234.433 1225.14 235.387 1216.67 237.28 1209.82C240.773 1197.19 248.713 1188.69 261.1 1184.34C272.97 1180.17 285.93 1179.44 298.37 1179.37C315.763 1179.28 340.903 1179.27 373.79 1179.34C392.91 1179.38 417.08 1184.85 422.08 1206.68C422.84 1209.99 423.233 1213.68 423.26 1217.75C423.38 1234.98 423.39 1250.85 423.29 1265.35C423.29 1265.57 423.204 1265.78 423.05 1265.93C422.896 1266.08 422.687 1266.17 422.47 1266.17H275ZM275.23 1222.76C274.34 1228.31 274.08 1234 274.46 1239.56C274.475 1239.79 274.576 1240 274.741 1240.15C274.906 1240.31 275.124 1240.39 275.35 1240.39H382.81C382.972 1240.39 383.127 1240.33 383.241 1240.21C383.356 1240.1 383.42 1239.94 383.42 1239.78C383.44 1233.39 383.413 1227.59 383.34 1222.4C383.28 1217.67 382.6 1213.18 377.89 1211.61C374.997 1210.65 372.533 1210.17 370.5 1210.16C326.047 1210.1 301.547 1210.09 297 1210.13C293.087 1210.17 289.423 1210.55 286.01 1211.28C279.843 1212.6 276.25 1216.43 275.23 1222.76Z" fill="white"/>
<path d="M578.95 1203.51C579.203 1204.26 579.447 1204.26 579.68 1203.5C585.57 1184.38 603.75 1179.72 621.55 1179.47C628.023 1179.38 635.607 1179.32 644.3 1179.29C658.18 1179.24 668.01 1179.47 673.79 1179.99C687.6 1181.22 700.6 1186.72 707.47 1199.27C713.78 1210.79 713.91 1224.84 713.84 1238.76C713.747 1259.26 713.747 1287.57 713.84 1323.69C713.84 1323.79 713.801 1323.88 713.732 1323.95C713.662 1324.02 713.568 1324.06 713.47 1324.06H675.27C674.863 1324.06 674.66 1323.86 674.66 1323.45C674.66 1274.66 674.64 1244.77 674.6 1233.76C674.587 1230.09 673.753 1226.47 672.1 1222.9C668.98 1216.16 662.49 1214.01 655.5 1213.7C652.013 1213.55 642.347 1213.51 626.5 1213.57C622.153 1213.58 617.84 1213.92 613.56 1214.57C599.49 1216.74 596.86 1225.54 596.92 1238.29C597.053 1265.88 597.06 1294.24 596.94 1323.35C596.937 1323.54 596.861 1323.72 596.729 1323.85C596.596 1323.99 596.417 1324.06 596.23 1324.06H562.47C562.306 1324.06 562.148 1323.99 562.032 1323.88C561.915 1323.76 561.85 1323.6 561.85 1323.44C561.817 1273.17 561.827 1244.19 561.88 1236.5C561.9 1233.41 561.557 1230.22 560.85 1226.93C558.13 1214.26 543.17 1213.61 532.78 1213.59C519.78 1213.56 510.117 1213.61 503.79 1213.73C489.57 1214 484.87 1222.38 484.83 1235.25C484.717 1281.94 484.67 1311.32 484.69 1323.41C484.69 1323.58 484.623 1323.74 484.503 1323.86C484.383 1323.98 484.22 1324.05 484.05 1324.05H446.55C446.374 1324.05 446.205 1323.98 446.08 1323.86C445.954 1323.73 445.883 1323.57 445.88 1323.39C445.78 1279.74 445.8 1247.54 445.94 1226.81C445.973 1221.16 446.743 1215.33 448.25 1209.34C451.477 1196.43 459.023 1187.78 470.89 1183.39C477.623 1180.9 484.83 1179.59 492.51 1179.48C511.937 1179.21 527.38 1179.2 538.84 1179.47C543.36 1179.58 548.363 1180.22 553.85 1181.39C566.503 1184.1 574.87 1191.47 578.95 1203.51Z" fill="white"/>
<path d="M892.84 1233.89C893.029 1233.89 893.21 1233.82 893.346 1233.69C893.482 1233.56 893.562 1233.38 893.57 1233.19C893.783 1229.2 893.457 1225.22 892.59 1221.23C890.27 1210.63 881.16 1207.76 871.51 1207.72C863.537 1207.69 849.483 1207.69 829.35 1207.72C829.03 1207.72 828.87 1207.56 828.87 1207.25V1179.86C828.87 1179.73 828.921 1179.61 829.011 1179.52C829.101 1179.43 829.223 1179.38 829.35 1179.38C843.21 1179.28 858.27 1179.29 874.53 1179.41C885.05 1179.49 894.76 1181.05 903.66 1184.08C915.95 1188.27 925.38 1196.12 929.82 1208.67C932.32 1215.75 933.57 1223.11 933.57 1230.75C933.57 1234.98 933.49 1249.58 933.33 1274.56C933.29 1281.37 932.307 1288 930.38 1294.45C926.613 1307.06 918.307 1315.39 905.46 1319.45C892.65 1323.5 879.1 1324.09 865.66 1324.11C850.593 1324.14 824.797 1324.15 788.27 1324.12C780.697 1324.11 773.15 1323.44 765.63 1322.09C749.34 1319.17 737.22 1310.05 735.68 1292.81C735.113 1286.5 734.953 1279.49 735.2 1271.77C735.367 1266.5 735.77 1262.47 736.41 1259.7C738.49 1250.65 743.243 1244.21 750.67 1240.38C761.68 1234.69 774.76 1233.89 787.03 1233.9C833.643 1233.96 868.913 1233.96 892.84 1233.89ZM893.52 1259.38C893.507 1258.91 893.267 1258.68 892.8 1258.68C875.553 1258.63 840.547 1258.64 787.78 1258.72C782.693 1258.73 779.057 1260.6 776.87 1264.32C775.803 1266.13 775.17 1269.02 774.97 1272.99C774.897 1274.46 774.85 1277.5 774.83 1282.1C774.817 1284.9 775.187 1287.28 775.94 1289.23C778.47 1295.77 786.29 1296.8 792.75 1296.8C817.863 1296.81 843.03 1296.76 868.25 1296.65C876.77 1296.61 885.78 1295.59 890.34 1287.9C891.847 1285.36 892.837 1281.31 893.31 1275.76C893.703 1271.07 893.773 1265.61 893.52 1259.38Z" fill="white"/>
<path d="M1052.04 1179.32C1068.16 1179.31 1077.98 1179.35 1081.5 1179.42C1095.21 1179.68 1109.07 1181.1 1121.46 1186.76C1141.76 1196.02 1145.95 1219.22 1145.94 1239.25C1145.93 1251.18 1145.94 1279.28 1145.95 1323.56C1145.95 1323.69 1145.9 1323.81 1145.81 1323.91C1145.71 1324 1145.59 1324.05 1145.46 1324.05H1106.71C1106.52 1324.05 1106.34 1323.98 1106.2 1323.84C1106.07 1323.71 1105.99 1323.53 1105.99 1323.34C1106 1277.75 1105.98 1249.19 1105.93 1237.64C1105.92 1235.21 1105.37 1232.06 1104.3 1228.18C1103.29 1224.56 1101.78 1221.82 1099.77 1219.97C1094.45 1215.09 1086.1 1213.81 1079 1213.69C1076.53 1213.65 1067.55 1213.63 1052.04 1213.63C1036.53 1213.63 1027.54 1213.65 1025.07 1213.69C1017.97 1213.81 1009.62 1215.09 1004.3 1219.97C1002.29 1221.82 1000.78 1224.56 999.77 1228.18C998.697 1232.06 998.153 1235.21 998.14 1237.64C998.1 1249.19 998.083 1277.75 998.09 1323.34C998.09 1323.53 998.014 1323.71 997.879 1323.84C997.744 1323.98 997.561 1324.05 997.37 1324.05L958.62 1324.06C958.49 1324.06 958.365 1324.01 958.274 1323.92C958.182 1323.82 958.13 1323.7 958.13 1323.57C958.143 1279.29 958.143 1251.19 958.13 1239.26C958.12 1219.23 962.31 1196.03 982.61 1186.76C995 1181.1 1008.86 1179.68 1022.57 1179.42C1026.09 1179.35 1035.91 1179.32 1052.04 1179.32Z" fill="white"/>
<path d="M1325.17 1233.77C1325.29 1233.72 1325.39 1233.63 1325.46 1233.53C1325.53 1233.42 1325.57 1233.29 1325.57 1233.16C1325.56 1227.53 1325.23 1220.08 1322.32 1215.53C1317.69 1208.32 1307.55 1207.49 1299.58 1207.68C1298.02 1207.72 1285.32 1207.71 1261.48 1207.66C1261.39 1207.66 1261.31 1207.64 1261.23 1207.61C1261.15 1207.58 1261.07 1207.53 1261.01 1207.47C1260.95 1207.41 1260.9 1207.33 1260.87 1207.25C1260.84 1207.17 1260.82 1207.09 1260.82 1207V1180.01C1260.82 1179.84 1260.89 1179.69 1261 1179.57C1261.12 1179.45 1261.27 1179.38 1261.44 1179.38C1276.26 1179.2 1291.54 1179.22 1307.28 1179.45C1327.74 1179.75 1351.43 1185.16 1360.61 1205.89C1362.3 1209.72 1363.6 1214.14 1364.51 1219.17C1365.06 1222.22 1365.37 1226.8 1365.42 1232.89C1365.48 1239.68 1365.53 1251.72 1365.58 1269.03C1365.6 1275.38 1365.01 1281.66 1363.81 1287.87C1362.37 1295.34 1360.26 1301.08 1357.47 1305.09C1345.21 1322.76 1319.67 1324.04 1300.25 1324.08C1265.9 1324.15 1237.57 1324.12 1215.26 1323.98C1208.56 1323.94 1202.27 1323.24 1196.39 1321.87C1180.97 1318.28 1169.87 1310.62 1167.73 1294.06C1167.09 1289.11 1166.92 1281.47 1167.22 1271.15C1167.46 1262.8 1168.59 1256.67 1170.6 1252.75C1177.41 1239.52 1190.39 1236.05 1204.27 1234.56C1208.01 1234.16 1213.52 1233.96 1220.8 1233.95C1241.42 1233.94 1275.9 1233.93 1324.25 1233.94C1324.6 1233.94 1324.91 1233.88 1325.17 1233.77ZM1325.41 1259.27C1325.39 1258.89 1325.19 1258.7 1324.81 1258.7C1306.96 1258.62 1272.44 1258.63 1221.25 1258.73C1214.36 1258.75 1208.1 1261.27 1207.17 1269C1206.84 1271.75 1206.75 1276.67 1206.88 1283.76C1207.01 1290.79 1210.46 1294.91 1217.23 1296.11C1219.25 1296.46 1221.83 1296.81 1224.29 1296.81C1250.14 1296.82 1276.04 1296.74 1302 1296.56C1312.85 1296.49 1322.49 1293.44 1324.5 1281.28C1325.53 1275.02 1325.84 1267.68 1325.41 1259.27Z" fill="white"/>
<path d="M1743.76 1266.84C1743.6 1269.83 1743.64 1273.19 1743.88 1276.94C1744.41 1285.14 1746.95 1291.36 1755.9 1292.89C1759.67 1293.53 1763.46 1293.85 1767.25 1293.84C1789.95 1293.77 1805.63 1293.76 1814.3 1293.81C1814.45 1293.81 1814.6 1293.87 1814.7 1293.98C1814.81 1294.08 1814.87 1294.23 1814.87 1294.38V1323.73C1814.87 1323.83 1814.83 1323.93 1814.76 1324C1814.69 1324.07 1814.59 1324.11 1814.49 1324.11C1798.74 1324.14 1782 1324.12 1764.27 1324.03C1753.6 1323.98 1743.64 1322.51 1734.39 1319.62C1721.6 1315.61 1712.83 1307.57 1708.08 1295.48C1705.25 1288.26 1703.81 1280.52 1703.77 1272.25C1703.74 1265.78 1703.79 1253.86 1703.92 1236.48C1704.03 1222.02 1704.64 1209.08 1712.29 1197.55C1722.59 1182.03 1745.7 1179.95 1762.5 1179.53C1775.39 1179.21 1802.57 1179.18 1844.02 1179.44C1850.59 1179.48 1857.12 1180.28 1863.62 1181.85C1877.05 1185.09 1887.01 1192.01 1890.96 1205.05C1891.92 1208.24 1892.4 1213.27 1892.41 1220.14C1892.42 1238.53 1892.41 1253.76 1892.39 1265.84C1892.39 1266.06 1892.28 1266.17 1892.06 1266.17H1744.46C1744.02 1266.17 1743.79 1266.39 1743.76 1266.84ZM1743.85 1240C1743.86 1240.11 1743.91 1240.21 1743.98 1240.28C1744.06 1240.35 1744.16 1240.39 1744.27 1240.39H1852.2C1852.36 1240.39 1852.52 1240.33 1852.63 1240.21C1852.75 1240.1 1852.82 1239.94 1852.82 1239.78C1852.89 1231.65 1852.84 1225.06 1852.68 1220.03C1852.58 1217.02 1851.56 1214.65 1849.63 1212.94C1847.72 1211.25 1843.17 1210.28 1840.56 1210.25C1826.22 1210.1 1801.7 1210.11 1767 1210.26C1756.89 1210.3 1746.4 1210.91 1744.53 1223.08C1743.68 1228.63 1743.46 1234.27 1743.85 1240Z" fill="white"/>
<path d="M1416.25 1354.01L1402.55 1354.09C1398.57 1354.11 1395.36 1357.35 1395.38 1361.33L1395.44 1374.41C1395.47 1378.4 1398.71 1381.61 1402.69 1381.59L1416.39 1381.51C1420.37 1381.49 1423.59 1378.25 1423.56 1374.27L1423.5 1361.19C1423.47 1357.2 1420.23 1353.99 1416.25 1354.01Z" fill="white"/>
<path d="M1084.35 1355.09H1057.25C1056.95 1355.09 1056.71 1355.33 1056.71 1355.63V1486.39C1056.71 1486.69 1056.95 1486.93 1057.25 1486.93H1084.35C1084.65 1486.93 1084.89 1486.69 1084.89 1486.39V1355.63C1084.89 1355.33 1084.65 1355.09 1084.35 1355.09Z" fill="white"/>
<path d="M404.85 1361.48C442.87 1361.48 465.03 1361.52 471.33 1361.61C471.717 1361.62 471.91 1361.82 471.91 1362.21V1385.27C471.91 1385.38 471.865 1385.49 471.784 1385.57C471.703 1385.65 471.594 1385.7 471.48 1385.7H419.7C419.533 1385.7 419.373 1385.77 419.255 1385.88C419.136 1386 419.07 1386.16 419.07 1386.33V1486.18C419.07 1486.62 418.85 1486.84 418.41 1486.85C414.69 1486.9 410.167 1486.92 404.84 1486.92C399.507 1486.92 394.983 1486.9 391.27 1486.85C390.83 1486.84 390.61 1486.62 390.61 1486.18L390.62 1386.33C390.62 1386.16 390.554 1386 390.436 1385.88C390.317 1385.77 390.157 1385.7 389.99 1385.7L338.21 1385.69C338.096 1385.69 337.987 1385.64 337.906 1385.56C337.825 1385.48 337.78 1385.37 337.78 1385.26V1362.2C337.78 1361.81 337.973 1361.61 338.36 1361.61C344.66 1361.52 366.823 1361.48 404.85 1361.48Z" fill="white"/>
<path d="M828.46 1387.18C844.69 1387.18 857.53 1386.49 871.45 1390.35C888.31 1395.03 893.27 1410.19 893.51 1426.32C893.583 1431.09 893.62 1451.06 893.62 1486.23C893.62 1486.41 893.547 1486.59 893.418 1486.72C893.289 1486.85 893.113 1486.92 892.93 1486.92H866.71C866.508 1486.92 866.315 1486.84 866.173 1486.7C866.03 1486.55 865.95 1486.36 865.95 1486.16C865.917 1474.79 865.907 1455.2 865.92 1427.39C865.92 1425.53 865.493 1423.2 864.64 1420.4C862.46 1413.22 855.44 1411.25 848.75 1410.94C847.503 1410.88 840.74 1410.85 828.46 1410.85C816.173 1410.85 809.407 1410.88 808.16 1410.94C801.47 1411.25 794.45 1413.22 792.27 1420.4C791.417 1423.2 790.99 1425.53 790.99 1427.39C791.003 1455.2 790.993 1474.79 790.96 1486.16C790.96 1486.36 790.88 1486.55 790.737 1486.7C790.595 1486.84 790.402 1486.92 790.2 1486.92H763.98C763.797 1486.92 763.622 1486.85 763.492 1486.72C763.363 1486.59 763.29 1486.41 763.29 1486.23C763.29 1451.06 763.327 1431.09 763.4 1426.32C763.64 1410.19 768.6 1395.03 785.46 1390.35C799.38 1386.49 812.22 1387.18 828.46 1387.18Z" fill="white"/>
<path d="M1166.73 1387.16C1177.35 1387.16 1186.15 1387.08 1197.41 1387.95C1203.93 1388.45 1210 1390.1 1215.62 1392.89C1231.97 1401.02 1231.45 1421.84 1231.44 1437.09C1231.44 1452.34 1231.95 1473.16 1215.6 1481.28C1209.98 1484.07 1203.91 1485.72 1197.39 1486.22C1186.13 1487.08 1177.33 1487 1166.71 1487C1156.09 1486.99 1147.29 1487.07 1136.03 1486.2C1129.51 1485.7 1123.44 1484.05 1117.82 1481.26C1101.48 1473.13 1102 1452.31 1102 1437.06C1102 1421.81 1101.49 1400.99 1117.84 1392.87C1123.46 1390.08 1129.53 1388.44 1136.05 1387.94C1147.31 1387.07 1156.11 1387.15 1166.73 1387.16ZM1203.77 1426.06C1203.76 1422.03 1202.16 1418.18 1199.31 1415.34C1196.46 1412.5 1192.6 1410.9 1188.57 1410.91L1144.83 1410.99C1142.84 1410.99 1140.87 1411.39 1139.03 1412.15C1137.19 1412.92 1135.52 1414.04 1134.12 1415.45C1132.71 1416.86 1131.59 1418.54 1130.84 1420.38C1130.08 1422.22 1129.69 1424.19 1129.69 1426.18L1129.73 1448.34C1129.74 1452.37 1131.34 1456.22 1134.19 1459.06C1137.04 1461.9 1140.9 1463.5 1144.93 1463.49L1188.67 1463.41C1190.66 1463.41 1192.63 1463.01 1194.47 1462.25C1196.31 1461.48 1197.98 1460.36 1199.38 1458.95C1200.79 1457.54 1201.91 1455.86 1202.66 1454.02C1203.42 1452.18 1203.81 1450.21 1203.81 1448.22L1203.77 1426.06Z" fill="white"/>
<path d="M1547.09 1424.8C1547.27 1424.8 1547.44 1424.73 1547.58 1424.61C1547.71 1424.49 1547.79 1424.32 1547.8 1424.14C1548.02 1421.59 1547.81 1418.81 1547.17 1415.81C1546.29 1411.66 1543.99 1408.99 1540.27 1407.8C1537.75 1406.99 1535.24 1406.58 1532.75 1406.58C1516.39 1406.56 1506.95 1406.54 1504.42 1406.53C1504.22 1406.53 1504.02 1406.45 1503.88 1406.3C1503.73 1406.16 1503.65 1405.96 1503.65 1405.76V1387.7C1503.65 1387.29 1503.86 1387.08 1504.27 1387.07C1517.12 1386.79 1528.37 1386.83 1538.03 1387.18C1552.65 1387.72 1568.65 1392.86 1573.38 1408.42C1574.79 1413.05 1575.5 1417.6 1575.51 1422.05C1575.54 1433.06 1575.48 1443.54 1575.32 1453.51C1575.25 1457.88 1574.54 1462.28 1573.21 1466.72C1570.78 1474.81 1565.67 1480.26 1557.86 1483.07C1550.69 1485.66 1542.65 1486.93 1533.75 1486.89C1526.17 1486.86 1505.25 1486.85 1471 1486.84C1466.7 1486.84 1461.48 1485.96 1455.33 1484.19C1449.95 1482.64 1445.74 1479.6 1442.7 1475.05C1440.89 1472.35 1439.83 1468.46 1439.5 1463.37C1439.08 1456.92 1439.16 1450.82 1439.75 1445.08C1441.43 1428.73 1456.99 1424.8 1470.75 1424.78C1485.7 1424.76 1511.15 1424.77 1547.09 1424.8ZM1547.88 1442.13C1547.88 1442.01 1547.83 1441.89 1547.74 1441.8C1547.65 1441.72 1547.53 1441.67 1547.41 1441.67C1524.65 1441.62 1501.86 1441.63 1479.04 1441.69C1475.51 1441.7 1473.04 1441.97 1471.63 1442.52C1468.78 1443.62 1467.23 1445.95 1466.98 1449.51C1466.55 1455.82 1466.57 1459.79 1467.06 1461.43C1468.37 1465.8 1471.35 1468 1476.01 1468.03C1494.15 1468.16 1512.4 1468.16 1530.75 1468.01C1538.65 1467.95 1545.26 1466.52 1547.11 1457.71C1548.18 1452.62 1548.04 1447.29 1547.88 1442.13Z" fill="white"/>
<path d="M508.97 1448.19C509.11 1450.52 509.19 1452.64 509.21 1454.57C509.31 1461.98 513.163 1465.75 520.77 1465.86C533.697 1466.06 545.96 1466.14 557.56 1466.09C557.967 1466.09 558.17 1466.29 558.17 1466.7V1486.48C558.17 1486.61 558.118 1486.73 558.026 1486.83C557.935 1486.92 557.81 1486.97 557.68 1486.97C547.027 1487.06 536.887 1487.06 527.26 1486.95C509.55 1486.77 491.03 1484.96 483.94 1466.32C482.433 1462.37 481.6 1455.79 481.44 1446.59C481.213 1433.14 481.473 1422.47 482.22 1414.56C483.047 1405.76 486.577 1399.02 492.81 1394.35C500.63 1388.49 513.98 1387.31 524.5 1387.23C534.893 1387.15 551.897 1387.14 575.51 1387.2C589.01 1387.24 605.28 1389.72 610.28 1403.52C611.5 1406.88 612.087 1412.52 612.04 1420.45C612 1426.5 611.953 1435.13 611.9 1446.34C611.9 1446.95 611.593 1447.26 610.98 1447.26H509.85C509.73 1447.26 509.611 1447.28 509.501 1447.33C509.391 1447.38 509.292 1447.45 509.209 1447.54C509.127 1447.62 509.063 1447.73 509.022 1447.84C508.981 1447.95 508.963 1448.07 508.97 1448.19ZM583.75 1429.55C584.137 1429.55 584.333 1429.36 584.34 1428.98C584.407 1424.12 584.367 1419.51 584.22 1415.16C584.193 1414.22 584.03 1413.33 583.73 1412.5C582.42 1408.87 576.8 1408.3 573.06 1408.31C552.18 1408.36 534.753 1408.5 520.78 1408.71C514.2 1408.81 510.43 1411.94 509.47 1418.09C509.39 1418.6 509.27 1420.37 509.11 1423.4C509.023 1425.13 509.017 1426.9 509.09 1428.71C509.098 1428.94 509.194 1429.15 509.358 1429.31C509.522 1429.46 509.742 1429.55 509.97 1429.55H583.75Z" fill="white"/>
<path d="M654.86 1437.13C654.86 1443.87 654.62 1448.26 655.98 1453.55C657.81 1460.7 664.32 1463.16 671.08 1463.26C676.22 1463.35 701.543 1463.47 747.05 1463.63C747.266 1463.63 747.472 1463.72 747.623 1463.87C747.775 1464.03 747.86 1464.23 747.86 1464.45V1486.22C747.86 1486.43 747.778 1486.63 747.632 1486.77C747.485 1486.92 747.287 1487 747.08 1487C715.487 1487.09 690.97 1487.08 673.53 1486.97C664.983 1486.91 657.653 1486.11 651.54 1484.58C627.43 1478.53 627.17 1457.4 627.17 1437.13C627.18 1416.85 627.45 1395.73 651.57 1389.69C657.677 1388.16 665.003 1387.36 673.55 1387.31C690.99 1387.2 715.507 1387.2 747.1 1387.31C747.307 1387.31 747.505 1387.39 747.652 1387.54C747.798 1387.68 747.88 1387.88 747.88 1388.09L747.87 1409.86C747.87 1410.08 747.785 1410.28 747.633 1410.44C747.482 1410.59 747.276 1410.68 747.06 1410.68C701.553 1410.82 676.23 1410.93 671.09 1411.01C664.33 1411.11 657.82 1413.57 655.99 1420.72C654.63 1426.01 654.86 1430.4 654.86 1437.13Z" fill="white"/>
<path d="M974.89 1387.16C982.83 1387.16 990.783 1387.21 998.75 1387.32C1007.72 1387.43 1015.96 1389.23 1023.45 1392.71C1027.89 1394.78 1031.51 1398.31 1034.31 1403.3C1039.93 1413.31 1039.6 1425.18 1039.6 1437.1C1039.59 1449.01 1039.91 1460.89 1034.29 1470.89C1031.48 1475.88 1027.86 1479.4 1023.42 1481.47C1015.93 1484.94 1007.69 1486.74 998.72 1486.85C990.753 1486.95 982.8 1487 974.86 1486.99C966.92 1486.99 958.967 1486.94 951 1486.83C942.027 1486.72 933.793 1484.92 926.3 1481.44C921.86 1479.37 918.24 1475.84 915.44 1470.85C909.82 1460.84 910.15 1448.97 910.15 1437.06C910.15 1425.14 909.84 1413.27 915.46 1403.26C918.267 1398.27 921.89 1394.75 926.33 1392.68C933.823 1389.21 942.057 1387.41 951.03 1387.3C958.997 1387.21 966.95 1387.16 974.89 1387.16ZM1011.97 1426.17C1011.97 1424.16 1011.57 1422.17 1010.8 1420.32C1010.03 1418.47 1008.9 1416.79 1007.48 1415.38C1006.06 1413.96 1004.37 1412.84 1002.52 1412.07C1000.67 1411.31 998.679 1410.92 996.674 1410.92L953.014 1411C951.009 1411 949.024 1411.4 947.173 1412.17C945.321 1412.94 943.64 1414.07 942.224 1415.49C940.809 1416.91 939.687 1418.6 938.923 1420.45C938.159 1422.3 937.767 1424.29 937.771 1426.29L937.809 1448.23C937.813 1450.24 938.211 1452.22 938.982 1454.08C939.752 1455.93 940.88 1457.61 942.3 1459.02C943.721 1460.44 945.406 1461.56 947.26 1462.33C949.114 1463.09 951.1 1463.48 953.106 1463.48L996.766 1463.4C998.771 1463.4 1000.76 1463 1002.61 1462.23C1004.46 1461.46 1006.14 1460.33 1007.56 1458.91C1008.97 1457.49 1010.09 1455.8 1010.86 1453.95C1011.62 1452.1 1012.01 1450.11 1012.01 1448.11L1011.97 1426.17Z" fill="white"/>
<path d="M1352.6 1476.03C1352.59 1475.79 1352.49 1475.56 1352.32 1475.39C1352.14 1475.22 1351.91 1475.13 1351.67 1475.13C1323.13 1475.18 1300.83 1475.15 1284.76 1475.05C1275.32 1474.99 1262.66 1472.96 1256 1466.87C1249.3 1460.75 1247.45 1452.21 1247.21 1443.25C1247.01 1435.5 1247.08 1427.75 1247.43 1420C1247.77 1412.57 1249 1404.61 1253.81 1398.26C1258.37 1392.24 1265.64 1389.5 1273.23 1388.43C1278.74 1387.65 1283.75 1387.25 1288.26 1387.22C1313.38 1387.07 1331.98 1387.16 1344.05 1387.47C1351.18 1387.65 1361.42 1389.96 1367.32 1394.36C1375.97 1400.81 1379.03 1411.33 1379.24 1421.83C1379.39 1429.37 1379.42 1448.23 1379.32 1478.42C1379.29 1488.31 1379.47 1494.01 1376.5 1501.48C1371.98 1512.81 1359.29 1516.67 1347.76 1516.79C1332.4 1516.94 1317.6 1516.96 1303.36 1516.84C1303.18 1516.84 1303 1516.76 1302.87 1516.63C1302.74 1516.5 1302.67 1516.32 1302.67 1516.13V1494.72C1302.67 1494.51 1302.77 1494.41 1302.97 1494.41C1327.48 1494.38 1340.24 1494.37 1341.25 1494.37C1344.69 1494.37 1348.59 1493.83 1350.83 1490.84C1351.71 1489.66 1352.24 1487.69 1352.42 1484.94C1352.63 1481.66 1352.69 1478.69 1352.6 1476.03ZM1352.47 1453.15C1352.62 1439.59 1352.57 1429.47 1352.34 1422.78C1352.27 1420.66 1351.53 1418.41 1350.14 1416.04C1347.84 1412.12 1341.96 1410.74 1337.76 1410.67C1323.05 1410.43 1306.72 1410.43 1288.76 1410.68C1283.57 1410.75 1278.74 1412.04 1276.01 1416.79C1275.23 1418.14 1274.74 1420.43 1274.53 1423.67C1274.13 1429.73 1274.12 1436.05 1274.51 1442.62C1274.69 1445.63 1275.3 1447.84 1276.35 1449.23C1277.86 1451.22 1280 1452.47 1282.77 1452.96C1285.28 1453.41 1286.94 1453.64 1287.75 1453.64C1315.48 1453.65 1336.85 1453.68 1351.86 1453.74C1352.26 1453.74 1352.46 1453.54 1352.47 1453.15Z" fill="white"/>
<path d="M1422.95 1389.74H1395.97C1395.64 1389.74 1395.38 1390 1395.38 1390.33V1486.33C1395.38 1486.66 1395.64 1486.92 1395.97 1486.92H1422.95C1423.28 1486.92 1423.54 1486.66 1423.54 1486.33V1390.33C1423.54 1390 1423.28 1389.74 1422.95 1389.74Z" fill="white"/>
<path d="M817.19 1565.32C817.255 1565.25 817.291 1565.16 817.291 1565.07C817.291 1564.98 817.255 1564.89 817.19 1564.82L781.08 1528.72C780.76 1528.39 780.827 1528.23 781.28 1528.23H805.14C805.613 1528.23 806.013 1528.4 806.34 1528.74L830.71 1553.81C830.79 1553.89 830.87 1553.89 830.95 1553.81L856.07 1528.68C856.383 1528.37 856.763 1528.21 857.21 1528.21C865.103 1528.21 873.033 1528.22 881 1528.24C881.24 1528.24 881.397 1528.28 881.47 1528.36C881.532 1528.43 881.56 1528.53 881.549 1528.63C881.538 1528.73 881.488 1528.83 881.41 1528.91L844.09 1565.15C844.016 1565.22 843.957 1565.31 843.916 1565.4C843.875 1565.5 843.854 1565.6 843.853 1565.7C843.852 1565.81 843.872 1565.91 843.911 1566C843.95 1566.1 844.007 1566.19 844.08 1566.26L881.81 1604C882.35 1604.53 882.24 1604.8 881.48 1604.8H856.56C856.153 1604.8 855.813 1604.65 855.54 1604.36L830.18 1577.36C830.073 1577.25 829.97 1577.25 829.87 1577.36L804.05 1604.36C803.777 1604.65 803.44 1604.79 803.04 1604.8C796.407 1604.81 788.213 1604.81 778.46 1604.8C778.34 1604.8 778.216 1604.77 778.109 1604.7C778.001 1604.64 777.916 1604.55 777.866 1604.44C777.816 1604.34 777.804 1604.23 777.831 1604.13C777.859 1604.03 777.926 1603.95 778.02 1603.89C778.06 1603.87 778.23 1603.82 778.53 1603.74C778.743 1603.68 778.93 1603.57 779.09 1603.42L817.19 1565.32Z" fill="white"/>
<path d="M950.21 1565.93L988.44 1604.24C988.486 1604.28 988.518 1604.34 988.531 1604.41C988.544 1604.47 988.538 1604.53 988.513 1604.59C988.488 1604.65 988.446 1604.7 988.392 1604.74C988.338 1604.77 988.274 1604.79 988.21 1604.79L962.52 1604.81C962.477 1604.81 962.434 1604.8 962.395 1604.78C962.355 1604.77 962.32 1604.74 962.29 1604.71L936.68 1577.44C936.651 1577.41 936.616 1577.38 936.576 1577.37C936.537 1577.35 936.495 1577.34 936.452 1577.34C936.409 1577.34 936.367 1577.34 936.327 1577.36C936.287 1577.38 936.25 1577.4 936.22 1577.43L910.14 1604.7C910.11 1604.73 910.075 1604.76 910.035 1604.77C909.996 1604.79 909.953 1604.8 909.91 1604.8H884.83C884.766 1604.8 884.705 1604.78 884.652 1604.74C884.6 1604.71 884.559 1604.66 884.535 1604.6C884.512 1604.54 884.506 1604.48 884.52 1604.41C884.533 1604.35 884.564 1604.29 884.61 1604.25L923.79 1565.22C923.821 1565.19 923.845 1565.15 923.862 1565.11C923.879 1565.08 923.888 1565.03 923.888 1564.99C923.888 1564.95 923.879 1564.9 923.862 1564.87C923.845 1564.83 923.821 1564.79 923.79 1564.76L887.34 1528.76C887.294 1528.72 887.262 1528.66 887.249 1528.59C887.236 1528.53 887.242 1528.47 887.267 1528.41C887.292 1528.35 887.334 1528.3 887.388 1528.26C887.442 1528.23 887.506 1528.21 887.57 1528.21L912.24 1528.23C912.283 1528.23 912.326 1528.24 912.365 1528.26C912.405 1528.27 912.44 1528.3 912.47 1528.33L937.04 1553.8C937.069 1553.83 937.104 1553.86 937.143 1553.87C937.183 1553.89 937.225 1553.9 937.268 1553.9C937.311 1553.9 937.353 1553.9 937.393 1553.88C937.433 1553.86 937.469 1553.84 937.5 1553.81L962.67 1528.33C962.727 1528.27 962.806 1528.23 962.89 1528.23H987.73C987.794 1528.23 987.855 1528.25 987.908 1528.29C987.96 1528.32 988.001 1528.37 988.025 1528.43C988.048 1528.49 988.054 1528.55 988.04 1528.62C988.027 1528.68 987.996 1528.74 987.95 1528.78L950.21 1565.47C950.179 1565.5 950.155 1565.54 950.138 1565.57C950.121 1565.61 950.112 1565.66 950.112 1565.7C950.112 1565.74 950.121 1565.79 950.138 1565.82C950.155 1565.86 950.179 1565.9 950.21 1565.93Z" fill="white"/>
<path d="M1043.57 1577.41L1017.56 1604.71C1017.53 1604.74 1017.49 1604.77 1017.45 1604.78C1017.41 1604.8 1017.36 1604.81 1017.32 1604.81L992.19 1604.79C992.126 1604.79 992.063 1604.77 992.01 1604.73C991.957 1604.7 991.916 1604.64 991.891 1604.59C991.867 1604.53 991.86 1604.46 991.873 1604.4C991.885 1604.33 991.915 1604.28 991.96 1604.23L1031.14 1565.2C1031.17 1565.17 1031.2 1565.13 1031.21 1565.09C1031.23 1565.05 1031.24 1565.01 1031.24 1564.96C1031.24 1564.92 1031.23 1564.88 1031.21 1564.84C1031.2 1564.8 1031.17 1564.76 1031.14 1564.73L994.67 1528.79C994.625 1528.74 994.595 1528.69 994.583 1528.62C994.57 1528.56 994.577 1528.49 994.601 1528.43C994.626 1528.38 994.667 1528.32 994.72 1528.29C994.773 1528.25 994.836 1528.23 994.9 1528.23L1019.55 1528.22C1019.59 1528.22 1019.64 1528.23 1019.68 1528.25C1019.72 1528.26 1019.76 1528.29 1019.79 1528.32L1044.43 1553.79C1044.46 1553.82 1044.5 1553.85 1044.54 1553.86C1044.58 1553.88 1044.62 1553.89 1044.67 1553.89C1044.71 1553.89 1044.75 1553.88 1044.79 1553.86C1044.83 1553.85 1044.87 1553.82 1044.9 1553.79L1070.05 1528.34C1070.08 1528.31 1070.12 1528.28 1070.16 1528.27C1070.2 1528.25 1070.25 1528.24 1070.29 1528.24L1095.1 1528.2C1095.17 1528.2 1095.23 1528.22 1095.29 1528.26C1095.34 1528.29 1095.38 1528.34 1095.41 1528.41C1095.43 1528.47 1095.44 1528.54 1095.43 1528.6C1095.41 1528.67 1095.38 1528.72 1095.33 1528.77L1057.6 1565.43C1057.57 1565.46 1057.54 1565.5 1057.53 1565.54C1057.51 1565.58 1057.5 1565.62 1057.5 1565.66C1057.5 1565.71 1057.51 1565.75 1057.53 1565.79C1057.54 1565.83 1057.57 1565.87 1057.6 1565.9L1095.73 1604.24C1095.77 1604.29 1095.81 1604.34 1095.82 1604.41C1095.83 1604.47 1095.82 1604.54 1095.8 1604.6C1095.77 1604.65 1095.73 1604.71 1095.68 1604.74C1095.63 1604.78 1095.56 1604.8 1095.5 1604.8H1069.86C1069.82 1604.8 1069.77 1604.79 1069.73 1604.77C1069.69 1604.76 1069.65 1604.73 1069.62 1604.7L1044.05 1577.41C1044.02 1577.38 1043.98 1577.35 1043.94 1577.33C1043.9 1577.32 1043.86 1577.31 1043.81 1577.31C1043.77 1577.31 1043.72 1577.32 1043.68 1577.33C1043.64 1577.35 1043.6 1577.38 1043.57 1577.41Z" fill="white"/>
<path d="M1126.59 1528H1105.41C1105.18 1528 1105 1528.18 1105 1528.41V1604.59C1105 1604.82 1105.18 1605 1105.41 1605H1126.59C1126.82 1605 1127 1604.82 1127 1604.59V1528.41C1127 1528.18 1126.82 1528 1126.59 1528Z" fill="white"/>
<path d="M1157.59 1528H1136.41C1136.18 1528 1136 1528.18 1136 1528.41V1604.59C1136 1604.82 1136.18 1605 1136.41 1605H1157.59C1157.82 1605 1158 1604.82 1158 1604.59V1528.41C1158 1528.18 1157.82 1528 1157.59 1528Z" fill="white"/>
<path d="M682.23 180.46C682.457 180.259 682.638 180.011 682.762 179.734C682.886 179.456 682.95 179.155 682.95 178.85C682.923 174.61 683.007 170.993 683.2 168C684.847 142.987 694.547 122.163 712.3 105.53C727.78 91.02 749.64 80.85 770.72 76.09C770.867 76.0563 771.02 76.0652 771.162 76.1156C771.303 76.1661 771.428 76.2559 771.52 76.3746C771.613 76.4933 771.669 76.6359 771.683 76.7857C771.697 76.9354 771.669 77.0861 771.6 77.22C769.913 80.54 768.333 84.0767 766.86 87.83C756.88 113.34 760.22 139.52 773.83 163.01C775.637 166.13 777.333 168.457 778.92 169.99C784.53 175.45 793.41 172.88 797.58 167.02C800.31 163.2 799.06 159.37 796.65 155.24C788.74 141.71 782.86 127.25 784.22 111.56C784.833 104.52 786.857 96.9434 790.29 88.83C814.08 32.63 883.43 9.01002 934.59 44.96C936.277 46.14 937.12 47.7567 937.12 49.81C937.133 87.37 937.16 113.723 937.2 128.87C937.201 129.164 937.133 129.454 937 129.717C936.868 129.979 936.676 130.207 936.439 130.381C936.202 130.556 935.928 130.672 935.638 130.72C935.348 130.769 935.051 130.748 934.77 130.66C931.07 129.507 927.507 128.53 924.08 127.73C902.52 122.697 882.687 125.4 864.58 135.84C854.03 141.92 845.72 150.22 839.94 160.71C832.86 173.54 827.71 187.81 827.67 202.09C827.63 214.463 827.58 223.217 827.52 228.35C827.333 246.203 819.57 259.99 804.23 269.71C785.02 281.88 763.91 285.34 743.73 272.69C736.537 268.177 730.65 262.813 726.07 256.6C724.57 254.573 721.757 250.227 717.63 243.56C716.943 242.453 715.877 241.74 714.43 241.42C713.177 241.147 711.917 241.14 710.65 241.4C705.01 242.56 700.883 245.863 698.27 251.31C696.36 255.3 705.75 267.36 708.37 270.25C708.489 270.379 708.568 270.54 708.596 270.713C708.625 270.887 708.602 271.065 708.531 271.225C708.46 271.386 708.343 271.522 708.196 271.617C708.048 271.712 707.876 271.762 707.7 271.76C682.24 271.7 659.217 279.077 638.63 293.89C635.163 296.383 630.78 299.77 625.48 304.05C625.351 304.152 625.199 304.222 625.037 304.252C624.875 304.282 624.708 304.272 624.552 304.222C624.395 304.173 624.254 304.085 624.14 303.968C624.027 303.851 623.944 303.707 623.9 303.55C618.68 285.42 617.59 266.29 622.36 248.02C627.027 230.1 635.953 214.39 649.14 200.89C657.313 192.523 667.4 186.317 679.4 182.27C680.44 181.92 681.4 181.2 682.23 180.46Z" fill="#C47CE6"/>
<path d="M775.84 649.78C770.84 647.82 762.74 645.51 757.57 643.5C721.003 629.24 694.987 603.81 679.52 567.21C679.423 566.977 679.408 566.718 679.477 566.476C679.546 566.234 679.695 566.024 679.9 565.88C680.093 565.74 680.503 565.737 681.13 565.87C688.07 567.377 691.56 568.137 691.6 568.15C712.633 572.263 733.5 571.58 754.2 566.1C755.673 565.707 757.4 566.64 759.38 568.9C762.54 572.5 763.87 574.47 766.91 576.18C770.737 578.34 774.85 579.703 779.25 580.27C790.69 581.75 804.05 579.86 812.16 571.18C816.573 566.46 819.66 561.047 821.42 554.94C824.79 543.23 820.3 531.31 812.01 522.42C802.97 512.727 791.85 508.987 778.65 511.2C768.717 512.867 761.257 518.033 756.27 526.7C753.87 530.87 752.57 536.33 751.82 541.29C751.687 542.197 751.117 542.807 750.11 543.12C741.817 545.693 733.7 547.33 725.76 548.03C685.2 551.57 648.2 531.82 629.24 495.83C620.22 478.71 617.39 460.767 620.75 442C621.677 436.853 622.94 430.537 624.54 423.05C624.61 422.735 624.557 422.406 624.39 422.13C615.883 407.657 612.49 391.44 614.21 373.48C615.723 357.653 621.16 343.967 630.52 332.42C644.61 315.06 664.05 302.42 685.69 296.9C698.67 293.58 712.17 293.14 725.78 295.47C734.84 297.01 746.9 301.02 757.86 302.92C780.55 306.84 803.28 301.16 821.04 287.65C838.25 274.57 848.1 255.35 849.26 233.56C849.64 226.5 849.69 216.563 849.41 203.75C849.183 193.67 851.743 184.29 857.09 175.61C860.83 169.543 865.313 164.523 870.54 160.55C889.04 146.48 912.36 145.99 933.12 156.11C935.793 157.41 937.127 159.453 937.12 162.24C937.107 172.913 937.107 219.847 937.12 303.04C937.12 303.603 936.91 304.146 936.531 304.562C936.151 304.978 935.631 305.238 935.07 305.29C908.05 307.71 886.12 318.41 870.01 340.26C859.077 355.08 854.273 371.69 855.6 390.09C855.853 393.67 857.877 396.497 861.67 398.57C865.11 400.457 868.76 400.517 872.62 398.75C874.607 397.843 876.36 396.15 877.88 393.67C878.7 392.323 879.207 390.027 879.4 386.78C879.56 383.967 879.843 381.133 880.25 378.28C884.42 348.71 905.75 333.22 933.78 328.97C936.08 328.62 937.12 329.75 937.12 332.04C937.093 502.713 937.1 651.983 937.14 779.85C937.14 781.317 936.41 782.05 934.95 782.05C913.25 782.097 878.523 782.093 830.77 782.04C828.93 782.04 827.903 781.327 827.69 779.9C824.783 760.44 817.81 742.657 806.77 726.55C797.643 713.217 790.473 702.78 785.26 695.24C778.84 685.95 776.18 674.67 776.59 663.16C776.663 661.207 776.8 657.333 777 651.54C777.012 651.163 776.907 650.791 776.699 650.476C776.491 650.161 776.191 649.918 775.84 649.78ZM744.93 360.7C770.89 362.34 791.11 376.47 803.77 398.74C805.437 401.66 807.713 405.963 810.6 411.65C814.38 419.09 822.57 419.61 828.82 415.02C833.16 411.84 834.28 407.52 832.18 402.06C825.22 383.927 814.02 368.777 798.58 356.61C785.333 346.183 769.837 340.467 752.09 339.46C740.523 338.807 729.013 339.47 717.56 341.45C708.95 342.94 699.96 346.17 693.86 352.34C690.57 355.68 689.61 359.83 691.67 364.27C694.33 370 699.48 374.43 706 370.73C711.173 367.803 716.293 365.43 721.36 363.61C728.3 361.117 736.157 360.147 744.93 360.7ZM865.58 486.68C879.04 498.27 886.91 510.76 889.14 528.16C889.927 534.307 890.333 539.74 890.36 544.46C890.513 568.48 890.533 586.913 890.42 599.76C890.24 620.687 890.217 659.203 890.35 715.31C890.363 720.357 891.857 723.88 894.83 725.88C900.91 729.97 910.1 728.36 912.78 721.15C913.427 719.41 913.747 716.263 913.74 711.71C913.633 632.37 913.69 576.387 913.91 543.76C913.95 537.533 913.683 531.817 913.11 526.61C911.69 513.81 906.95 500.87 899.81 490.13C885.623 468.79 866.343 454.813 841.97 448.2C826.283 443.947 810.257 444.283 793.89 449.21C775.03 454.88 758.48 468.73 748.67 485.42C746.24 489.56 745.45 494.45 748.02 498.48C750.53 502.4 755.38 503.64 759.76 502.24C762.613 501.327 764.607 500.16 765.74 498.74C769.727 493.753 773.023 489.723 775.63 486.65C784.72 475.95 801.99 470.1 816.02 468.99C834.42 467.54 851.8 474.82 865.58 486.68Z" fill="#C47CE6"/>
</svg>
